<svg style="" version="1.1" xml:space="preserve" xmlns="http://www.w3.org/2000/svg" xmlns:xlink="http://www.w3.org/1999/xlink" width="400" height="400"><rect id="backgroundrect" width="100%" height="100%" x="0" y="0" fill="none" stroke="none" style="" class=""/><g class="currentLayer" style=""><title>Layer 1</title><g id="svg_1" class="" fill="#dddddd" fill-opacity="1"><circle cx="200.05364990234375" cy="200.0518341064453" r="66.68452453613281" id="svg_2" fill="#dddddd" fill-opacity="1"/><path d="M283.3926696777344,-0.001800537109375 h-166.71136474609375 C52.34736633300781,-0.001800537109375 0.0000015229456948873121,52.36222839355469 0.0000015229456948873121,116.71282958984375 v166.71136474609375 C0.0000015229456948873121,347.75811767578125 52.36404037475586,400.10546875 116.71463775634766,400.10546875 h166.71136474609375 C347.7599182128906,400.10546875 400.1072998046875,347.7414245605469 400.1072998046875,283.39085388183594 v-166.71136474609375 C400.1072998046875,52.34556579589844 347.74322509765625,-0.001800537109375 283.3926696777344,-0.001800537109375 zM200.0536346435547,300.0786590576172 c-55.164791107177734,0 -100.02681732177734,-44.862030029296875 -100.02681732177734,-100.02681732177734 s44.862030029296875,-100.02681732177734 100.02681732177734,-100.02681732177734 s100.02681732177734,44.862030029296875 100.02681732177734,100.02681732177734 S255.2184295654297,300.0786590576172 200.0536346435547,300.0786590576172 zM316.7516174316406,100.02499771118164 c-9.20246696472168,0 -16.6711368560791,-7.468669414520264 -16.6711368560791,-16.6711368560791 c0,-9.20246696472168 7.468669414520264,-16.6711368560791 16.6711368560791,-16.6711368560791 s16.6711368560791,7.468669414520264 16.6711368560791,16.6711368560791 C333.4227294921875,92.55635070800781 325.9540710449219,100.02499771118164 316.7516174316406,100.02499771118164 z" id="svg_3" fill="#dddddd" fill-opacity="1"/></g></g></svg>