<svg aria-hidden="true" focusable="false" data-prefix="fab" data-icon="linkedin" role="img" xmlns="http://www.w3.org/2000/svg" width="448" height="448" style=""><rect id="backgroundrect" width="100%" height="100%" x="0" y="0" fill="none" stroke="none" style="" class=""/><g class="currentLayer" style=""><title>Layer 1</title><path fill="#dddddd" d="M416,0 H31.899999618530273 C14.300000190734863,0 0,14.5 0,32.30000305175781 v383.3999938964844 C0,433.5 14.300000190734863,448 31.899999618530273,448 H416 c17.600000381469727,0 32,-14.5 32,-32.29999923706055 V32.30000305175781 c0,-17.799999237060547 -14.399999618530273,-32.29999923706055 -32,-32.29999923706055 zM135.39999389648438,384 H69 V170.1999969482422 h66.5 V384 zm-33.20000076293945,-243 c-21.299999237060547,0 -38.5,-17.299999237060547 -38.5,-38.5 S80.9000015258789,64 102.19999694824219,64 c21.200000762939453,0 38.5,17.299999237060547 38.5,38.5 c0,21.299999237060547 -17.200000762939453,38.5 -38.5,38.5 zm282.1000061035156,243 h-66.4000015258789 V280 c0,-24.799999237060547 -0.5,-56.70000076293945 -34.5,-56.70000076293945 c-34.599998474121094,0 -39.900001525878906,27 -39.900001525878906,54.900001525878906 V384 h-66.4000015258789 V170.1999969482422 h63.70000076293945 v29.200000762939453 h0.8999999761581421 c8.899999618530273,-16.799999237060547 30.600000381469727,-34.5 62.900001525878906,-34.5 c67.19999694824219,0 79.69999694824219,44.29999923706055 79.69999694824219,101.9000015258789 V384 z" id="svg_1" class="selected" fill-opacity="1"/></g></svg>