<svg aria-hidden="true" focusable="false" data-prefix="fab" data-icon="youtube" role="img" xmlns="http://www.w3.org/2000/svg" width="546" height="384" style=""><rect id="backgroundrect" width="100%" height="100%" x="0" y="0" fill="none" stroke="none" style="" class=""/><g class="currentLayer" style=""><title>Layer 1</title><path fill="#dddddd" d="M534.721435546875,60.08300018310547 c-6.281000137329102,-23.649999618530273 -24.78700065612793,-42.2760009765625 -48.284000396728516,-48.59700012207031 C443.847412109375,0 273.06640625,0 273.06640625,0 S102.28640747070312,0 59.695404052734375,11.486000061035156 c-23.496999740600586,6.322000026702881 -42.00299835205078,24.94700050354004 -48.284000396728516,48.59700012207031 c-11.411999702453613,42.867000579833984 -11.411999702453613,132.30499267578125 -11.411999702453613,132.30499267578125 s0,89.43800354003906 11.411999702453613,132.30499267578125 c6.281000137329102,23.649999618530273 24.78700065612793,41.5 48.284000396728516,47.82099914550781 C102.28640747070312,384 273.06640625,384 273.06640625,384 s170.77999877929688,0 213.37100219726562,-11.486000061035156 c23.496999740600586,-6.321000099182129 42.00299835205078,-24.17099952697754 48.284000396728516,-47.82099914550781 c11.411999702453613,-42.867000579833984 11.411999702453613,-132.30499267578125 11.411999702453613,-132.30499267578125 s0,-89.43800354003906 -11.411999702453613,-132.30499267578125 zm-317.510009765625,213.50799560546875 V111.18499755859375 l142.73899841308594,81.20500183105469 l-142.73899841308594,81.20099639892578 z" id="svg_1" class="" fill-opacity="1"/></g></svg>