<svg aria-hidden="true" focusable="false" data-prefix="fab" data-icon="facebook-square" role="img" xmlns="http://www.w3.org/2000/svg" width="448" height="448"><rect id="backgroundrect" width="100%" height="100%" x="0" y="0" fill="none" stroke="none" style="" class=""/><g class="currentLayer" style=""><title>Layer 1</title><path fill="#dddddd" d="M400,0 H48 A48,48 0 0 0 0,48 v352 a48,48 0 0 0 48,48 h137.25 V295.69000244140625 h-63 V224 h63 v-54.63999938964844 c0,-62.150001525878906 37,-96.4800033569336 93.66999816894531,-96.4800033569336 c27.139999389648438,0 55.52000045776367,4.840000152587891 55.52000045776367,4.840000152587891 v61 h-31.270000457763672 c-30.809999465942383,0 -40.41999816894531,19.1200008392334 -40.41999816894531,38.72999954223633 V224 h68.77999877929688 l-11,71.69000244140625 h-57.779998779296875 V448 H400 a48,48 0 0 0 48,-48 V48 a48,48 0 0 0 -48,-48 z" id="svg_1" class="" opacity="1" fill-opacity="1"/></g></svg>