<svg aria-hidden="true" focusable="false" data-prefix="fab" data-icon="twitter" role="img" xmlns="http://www.w3.org/2000/svg" width="512" height="416"><rect id="backgroundrect" width="100%" height="100%" x="0" y="0" fill="none" stroke="none"/><g class="currentLayer" style=""><title>Layer 1</title><path fill="#dddddd" d="M459.3699951171875,103.63397216796875 c0.32499998807907104,4.547999858856201 0.32499998807907104,9.097000122070312 0.32499998807907104,13.645000457763672 c0,138.72000122070312 -105.58300018310547,298.5580139160156 -298.5580139160156,298.5580139160156 c-59.45199966430664,0 -114.68000030517578,-17.2189998626709 -161.13699340820312,-47.10599899291992 c8.446999549865723,0.9739999771118164 16.56800079345703,1.2990000247955322 25.34000015258789,1.2990000247955322 c49.05500030517578,0 94.21299743652344,-16.56800079345703 130.2740020751953,-44.832000732421875 c-46.13199996948242,-0.9750000238418579 -84.79199981689453,-31.187999725341797 -98.11199951171875,-72.77200317382812 c6.498000144958496,0.9739999771118164 12.994999885559082,1.6239999532699585 19.81800079345703,1.6239999532699585 c9.420999526977539,0 18.843000411987305,-1.2999999523162842 27.61400032043457,-3.572999954223633 c-48.08100128173828,-9.746999740600586 -84.14299774169922,-51.97999954223633 -84.14299774169922,-102.98500061035156 v-1.2990000247955322 c13.968999862670898,7.796999931335449 30.214000701904297,12.670000076293945 47.430999755859375,13.319000244140625 c-28.263999938964844,-18.843000411987305 -46.78099822998047,-51.005001068115234 -46.78099822998047,-87.39099884033203 c0,-19.492000579833984 5.197000026702881,-37.36000061035156 14.293999671936035,-52.95399856567383 c51.654998779296875,63.67499923706055 129.3000030517578,105.25800323486328 216.36500549316406,109.80699920654297 c-1.6239999532699585,-7.796999931335449 -2.5989999771118164,-15.918000221252441 -2.5989999771118164,-24.040000915527344 c0,-57.827999114990234 46.78200149536133,-104.93399810791016 104.93399810791016,-104.93399810791016 c30.21299934387207,0 57.50199890136719,12.670000076293945 76.66999816894531,33.137001037597656 c23.71500015258789,-4.547999858856201 46.45600128173828,-13.319999694824219 66.5989990234375,-25.34000015258789 c-7.797999858856201,24.365999221801758 -24.365999221801758,44.83300018310547 -46.13199996948242,57.82699966430664 c21.117000579833984,-2.2730000019073486 41.58399963378906,-8.121999740600586 60.42599868774414,-16.243000030517578 c-14.291999816894531,20.791000366210938 -32.1609992980957,39.30799865722656 -52.62799835205078,54.25299835205078 z" id="svg_1" class="selected" opacity="1" fill-opacity="1"/></g></svg>