<svg aria-hidden="true" focusable="false" data-prefix="fab" data-icon="github-alt" role="img" xmlns="http://www.w3.org/2000/svg" width="480" height="384"><rect id="backgroundrect" width="100%" height="100%" x="0" y="0" fill="none" stroke="none"/><g class="currentLayer" style=""><title>Layer 1</title><path fill="#dddddd" d="M186.10000610351562,264.70001220703125 c0,20.899999618530273 -10.899999618530273,55.099998474121094 -36.70000076293945,55.099998474121094 s-36.70000076293945,-34.20000076293945 -36.70000076293945,-55.099998474121094 s10.899999618530273,-55.099998474121094 36.70000076293945,-55.099998474121094 s36.70000076293945,34.20000076293945 36.70000076293945,55.099998474121094 zM480,214.20001220703125 c0,31.899999618530273 -3.200000047683716,65.69999694824219 -17.5,95 c-37.900001525878906,76.5999984741211 -142.10000610351562,74.80000305175781 -216.6999969482422,74.80000305175781 c-75.80000305175781,0 -186.1999969482422,2.700000047683716 -225.60000610351562,-74.80000305175781 c-14.600000381469727,-29 -20.200000762939453,-63.099998474121094 -20.200000762939453,-95 c0,-41.900001525878906 13.899999618530273,-81.5 41.5,-113.5999984741211 c-5.199999809265137,-15.800000190734863 -7.699999809265137,-32.400001525878906 -7.699999809265137,-48.79999923706055 c0,-21.5 4.900000095367432,-32.29999923706055 14.600000381469727,-51.79999923706055 c45.29999923706055,0 74.30000305175781,9 108.80000305175781,36 c29,-6.900000095367432 58.79999923706055,-10 88.69999694824219,-10 c27,0 54.20000076293945,2.9000000953674316 80.4000015258789,9.199999809265137 c34,-26.700000762939453 63,-35.20000076293945 107.80000305175781,-35.20000076293945 c9.800000190734863,19.5 14.600000381469727,30.299999237060547 14.600000381469727,51.79999923706055 c0,16.399999618530273 -2.5999999046325684,32.70000076293945 -7.699999809265137,48.20000076293945 c27.5,32.400001525878906 39,72.30000305175781 39,114.19999694824219 zm-64.30000305175781,50.5 c0,-43.900001525878906 -26.700000762939453,-82.5999984741211 -73.5,-82.5999984741211 c-18.899999618530273,0 -37,3.4000000953674316 -56,6 c-14.899999618530273,2.299999952316284 -29.799999237060547,3.200000047683716 -45.099998474121094,3.200000047683716 c-15.199999809265137,0 -30.100000381469727,-0.8999999761581421 -45.099998474121094,-3.200000047683716 c-18.700000762939453,-2.5999999046325684 -37,-6 -56,-6 c-46.79999923706055,0 -73.5,38.70000076293945 -73.5,82.5999984741211 c0,87.80000305175781 80.4000015258789,101.30000305175781 150.39999389648438,101.30000305175781 h48.20000076293945 c70.30000305175781,0 150.60000610351562,-13.399999618530273 150.60000610351562,-101.30000305175781 zm-82.5999984741211,-55.099998474121094 c-25.799999237060547,0 -36.70000076293945,34.20000076293945 -36.70000076293945,55.099998474121094 s10.899999618530273,55.099998474121094 36.70000076293945,55.099998474121094 s36.70000076293945,-34.20000076293945 36.70000076293945,-55.099998474121094 s-10.899999618530273,-55.099998474121094 -36.70000076293945,-55.099998474121094 z" id="svg_1" class="" fill-opacity="1"/></g></svg>